<?xml version="1.0" encoding="utf-8"?>
<!-- Generator: Adobe Illustrator 25.2.1, SVG Export Plug-In . SVG Version: 6.00 Build 0)  -->
<svg version="1.1" id="Layer_1" xmlns="http://www.w3.org/2000/svg" xmlns:xlink="http://www.w3.org/1999/xlink" x="0px" y="0px"
	 viewBox="0 0 24 24" style="enable-background:new 0 0 24 24;" xml:space="preserve">
<style type="text/css">
	.st0{fill:none;stroke:#000000;stroke-miterlimit:10;}
	.st1{fill:none;stroke:#000000;stroke-width:0.5;stroke-miterlimit:10;}
	.st2{fill:none;stroke:#000000;stroke-width:0.5;stroke-miterlimit:10;stroke-dasharray:1.8786,0.4696;}
	.st3{fill:none;stroke:#000000;stroke-width:0.5;stroke-miterlimit:10;stroke-dasharray:2.1077,0.5269;}
</style>
<polygon class="st0" points="1.4,22.6 22.9,22.6 22.9,1.4 12.8,1.4 12.8,13.3 1.4,13.3 "/>
<g>
	<g>
		<line class="st1" x1="13.1" y1="4.4" x2="14.1" y2="4.4"/>
		<line class="st2" x1="14.6" y1="4.4" x2="21.4" y2="4.4"/>
		<line class="st1" x1="21.6" y1="4.4" x2="22.6" y2="4.4"/>
	</g>
</g>
<g>
	<g>
		<line class="st1" x1="13.1" y1="7.4" x2="14.1" y2="7.4"/>
		<line class="st2" x1="14.6" y1="7.4" x2="21.4" y2="7.4"/>
		<line class="st1" x1="21.6" y1="7.4" x2="22.6" y2="7.4"/>
	</g>
</g>
<g>
	<g>
		<line class="st1" x1="13.1" y1="10.5" x2="14.1" y2="10.5"/>
		<line class="st2" x1="14.6" y1="10.5" x2="21.4" y2="10.5"/>
		<line class="st1" x1="21.6" y1="10.5" x2="22.6" y2="10.5"/>
	</g>
</g>
<g>
	<g>
		<line class="st1" x1="13.1" y1="13.5" x2="14.1" y2="13.5"/>
		<line class="st2" x1="14.6" y1="13.5" x2="21.4" y2="13.5"/>
		<line class="st1" x1="21.6" y1="13.5" x2="22.6" y2="13.5"/>
	</g>
</g>
<g>
	<g>
		<line class="st1" x1="1.7" y1="16.6" x2="2.7" y2="16.6"/>
		<line class="st3" x1="3.2" y1="16.6" x2="21.4" y2="16.6"/>
		<line class="st1" x1="21.6" y1="16.6" x2="22.6" y2="16.6"/>
	</g>
</g>
<g>
	<g>
		<line class="st1" x1="1.7" y1="19.6" x2="2.7" y2="19.6"/>
		<line class="st3" x1="3.2" y1="19.6" x2="21.4" y2="19.6"/>
		<line class="st1" x1="21.6" y1="19.6" x2="22.6" y2="19.6"/>
	</g>
</g>
<line class="st0" x1="4.5" y1="1.4" x2="4.5" y2="8"/>
<line class="st0" x1="7.8" y1="4.7" x2="1.1" y2="4.7"/>
</svg>
