<?xml version="1.0" encoding="UTF-8"?>
<svg enable-background="new 0 0 24 24" version="1.1" viewBox="0 0 24 24" xml:space="preserve" xmlns="http://www.w3.org/2000/svg">
<style type="text/css">
	.st0{fill:none;stroke:#000000;stroke-miterlimit:10;}
	.st1{fill:none;stroke:#000000;stroke-width:0.5;stroke-miterlimit:10;}
	.st2{fill:none;stroke:#000000;stroke-width:0.5;stroke-miterlimit:10;stroke-dasharray:1.8786,0.4696;}
	.st3{fill:none;stroke:#000000;stroke-width:0.5;stroke-miterlimit:10;stroke-dasharray:2.1077,0.5269;}
</style>
	<polygon class="st0" points="1.4 22.6 22.9 22.6 22.9 1.4 12.8 1.4 12.8 13.3 1.4 13.3"/>
	<line class="st1" x1="13.1" x2="14.1" y1="4.4" y2="4.4"/>
	<line class="st2" x1="14.6" x2="21.4" y1="4.4" y2="4.4"/>
	<line class="st1" x1="21.6" x2="22.6" y1="4.4" y2="4.4"/>
	<line class="st1" x1="13.1" x2="14.1" y1="7.4" y2="7.4"/>
	<line class="st2" x1="14.6" x2="21.4" y1="7.4" y2="7.4"/>
	<line class="st1" x1="21.6" x2="22.6" y1="7.4" y2="7.4"/>
	<line class="st1" x1="13.1" x2="14.1" y1="10.5" y2="10.5"/>
	<line class="st2" x1="14.6" x2="21.4" y1="10.5" y2="10.5"/>
	<line class="st1" x1="21.6" x2="22.6" y1="10.5" y2="10.5"/>
	<line class="st1" x1="13.1" x2="14.1" y1="13.5" y2="13.5"/>
	<line class="st2" x1="14.6" x2="21.4" y1="13.5" y2="13.5"/>
	<line class="st1" x1="21.6" x2="22.6" y1="13.5" y2="13.5"/>
	<line class="st1" x1="1.7" x2="2.7" y1="16.6" y2="16.6"/>
	<line class="st3" x1="3.2" x2="21.4" y1="16.6" y2="16.6"/>
	<line class="st1" x1="21.6" x2="22.6" y1="16.6" y2="16.6"/>
	<line class="st1" x1="1.7" x2="2.7" y1="19.6" y2="19.6"/>
	<line class="st3" x1="3.2" x2="21.4" y1="19.6" y2="19.6"/>
	<line class="st1" x1="21.6" x2="22.6" y1="19.6" y2="19.6"/>
	<line class="st0" x1="4.5" x2="4.5" y1="1.4" y2="8"/>
	<line class="st0" x1="7.8" x2="1.1" y1="4.7" y2="4.7"/>
</svg>
